<mxfile host="app.diagrams.net" modified="2023-03-10T09:24:06.660Z" agent="5.0 (X11; Linux x86_64) AppleWebKit/537.36 (KHTML, like Gecko) Chrome/111.0.0.0 Safari/537.36" etag="LHxDjtpWg8lJG9tjbuVL" version="21.0.6" type="github">
  <diagram name="Page-1" id="7e0a89b8-554c-2b80-1dc8-d5c74ca68de4">
    <mxGraphModel dx="466" dy="801" grid="1" gridSize="10" guides="1" tooltips="1" connect="1" arrows="1" fold="1" page="1" pageScale="1" pageWidth="1169" pageHeight="827" background="none" math="0" shadow="0">
      <root>
        <mxCell id="0" />
        <mxCell id="1" parent="0" />
        <mxCell id="r1BfKw9GPEfe_xsOGwNw-2" value="" style="verticalLabelPosition=bottom;shadow=0;dashed=0;align=center;fillColor=strokeColor;html=1;verticalAlign=top;strokeWidth=1;shape=mxgraph.electrical.miscellaneous.monocell_battery;rotation=-90;" parent="1" vertex="1">
          <mxGeometry x="30" y="390" width="100" height="60" as="geometry" />
        </mxCell>
        <mxCell id="r1BfKw9GPEfe_xsOGwNw-3" value="" style="verticalLabelPosition=bottom;shadow=0;dashed=0;align=center;fillColor=strokeColor;html=1;verticalAlign=top;strokeWidth=1;shape=mxgraph.electrical.miscellaneous.monocell_battery;rotation=-90;" parent="1" vertex="1">
          <mxGeometry x="30" y="330" width="100" height="60" as="geometry" />
        </mxCell>
        <mxCell id="r1BfKw9GPEfe_xsOGwNw-4" value="" style="verticalLabelPosition=bottom;shadow=0;dashed=0;align=center;fillColor=strokeColor;html=1;verticalAlign=top;strokeWidth=1;shape=mxgraph.electrical.miscellaneous.monocell_battery;rotation=-90;" parent="1" vertex="1">
          <mxGeometry x="30" y="270" width="100" height="60" as="geometry" />
        </mxCell>
        <mxCell id="r1BfKw9GPEfe_xsOGwNw-5" value="" style="shape=waypoint;sketch=0;fillStyle=solid;size=6;pointerEvents=1;points=[];fillColor=none;resizable=0;rotatable=0;perimeter=centerPerimeter;snapToPoint=1;" parent="1" vertex="1">
          <mxGeometry x="70" y="460" width="20" height="20" as="geometry" />
        </mxCell>
        <mxCell id="r1BfKw9GPEfe_xsOGwNw-9" value="" style="shape=waypoint;sketch=0;fillStyle=solid;size=6;pointerEvents=1;points=[];fillColor=none;resizable=0;rotatable=0;perimeter=centerPerimeter;snapToPoint=1;" parent="1" vertex="1">
          <mxGeometry x="70" y="470" width="20" height="20" as="geometry" />
        </mxCell>
        <mxCell id="r1BfKw9GPEfe_xsOGwNw-10" value="" style="shape=waypoint;sketch=0;fillStyle=solid;size=6;pointerEvents=1;points=[];fillColor=none;resizable=0;rotatable=0;perimeter=centerPerimeter;snapToPoint=1;" parent="1" vertex="1">
          <mxGeometry x="70" y="480" width="20" height="20" as="geometry" />
        </mxCell>
        <mxCell id="r1BfKw9GPEfe_xsOGwNw-11" value="" style="shape=waypoint;sketch=0;fillStyle=solid;size=6;pointerEvents=1;points=[];fillColor=none;resizable=0;rotatable=0;perimeter=centerPerimeter;snapToPoint=1;" parent="1" vertex="1">
          <mxGeometry x="70" y="490" width="20" height="20" as="geometry" />
        </mxCell>
        <mxCell id="r1BfKw9GPEfe_xsOGwNw-12" value="" style="verticalLabelPosition=bottom;shadow=0;dashed=0;align=center;fillColor=strokeColor;html=1;verticalAlign=top;strokeWidth=1;shape=mxgraph.electrical.miscellaneous.monocell_battery;rotation=-90;" parent="1" vertex="1">
          <mxGeometry x="30" y="520" width="100" height="60" as="geometry" />
        </mxCell>
      </root>
    </mxGraphModel>
  </diagram>
</mxfile>
